<?xml version="1.0" encoding="UTF-8"?><svg id="Layer_1" xmlns="http://www.w3.org/2000/svg" viewBox="0 0 256 256"><defs><style>.cls-1{fill:#1eb6c3;}</style></defs><path class="cls-1" d="M212.37,86.84h-.53v45.43c0,19.99-12.23,36.88-26.71,36.88s-26.71-16.89-26.71-36.88v-48.81l-18.57-18.57h-7.45v.03h-54.02c-36.06,0-65.39,29.33-65.39,65.39s29.33,65.39,65.39,65.39h41.63l-26.02-26.02h-15.62c-21.71,0-39.37-17.66-39.37-39.38s17.66-39.37,39.37-39.37h54.02v41.33c0,34.68,23.65,62.89,52.72,62.89s52.72-28.21,52.72-62.89v-19.95l-25.48-25.48Z"/><rect class="cls-1" x="224.59" y="76.78" width="4.24" height="41.83" transform="translate(-2.67 188.92) rotate(-45)"/><rect class="cls-1" x="148.8" y="55.37" width="4.24" height="34.21" transform="translate(-7.05 127.95) rotate(-45)"/><rect class="cls-1" x="106.52" y="159.92" width="4.24" height="41.83" transform="translate(-96.05 129.78) rotate(-45)"/></svg>