<?xml version="1.0" encoding="UTF-8"?><svg id="Layer_1" xmlns="http://www.w3.org/2000/svg" viewBox="0 0 512 96"><defs><style>.cls-1{fill:#fff;}.cls-2{fill:#662d91;}</style></defs><rect class="cls-1" width="512" height="96"/><polygon class="cls-2" points="204.2 96 0 96 0 0 107.05 0 204.2 96"/><g><path class="cls-2" d="M206.01,76.55c0-1.06-.34-1.66-1-1.8-.67-.14-1.53-.21-2.59-.21h-50.34v-1.9c2.12,0,3.17-.63,3.17-1.9V22.72c0-1.27-1.06-1.9-3.17-1.9v-1.9h18.19v1.9c-1.97,0-2.96,.63-2.96,1.9v42.09h35.11c1.06,0,1.92-.25,2.59-.74,.67-.49,1-1.16,1-2.01h1.9v14.49h-1.9Z"/><path class="cls-2" d="M212.14,72.64c.92-.14,1.64-.6,2.17-1.38,.53-.78,1.04-1.66,1.53-2.64l19.56-41.14c.49-.92,.93-1.76,1.32-2.54,.39-.78,.58-1.44,.58-2.01,0-.7-.25-1.2-.74-1.48-.49-.28-1.02-.49-1.59-.63v-1.9h17.87v1.9c-.49,.14-.99,.34-1.48,.58-.49,.25-.74,.76-.74,1.53,0,.57,.12,1.13,.37,1.69,.25,.56,.62,1.3,1.11,2.22l22,43.04c.35,.78,.83,1.34,1.43,1.69,.6,.35,1.29,.71,2.06,1.06v1.9h-18.61v-1.9c.28,0,.63-.11,1.06-.32s.63-.53,.63-.95c0-.7-.28-1.62-.85-2.75l-4.02-7.83h-25.8l-3.81,7.51c-.71,1.48-1.06,2.54-1.06,3.17,0,.78,.67,1.16,2.01,1.16v1.9h-15.02v-1.9Zm39.87-19.67l-8.88-19.67-9.94,19.67h18.82Z"/><path class="cls-2" d="M290.08,72.64c1.34,0,2.01-.63,2.01-1.9V22.72c0-1.27-.67-1.9-2.01-1.9v-1.9h18.08v1.9c-.57,0-.85,.35-.85,1.06,0,.57,.7,1.55,2.12,2.96l30.35,31.51V22.72c0-1.27-.92-1.9-2.75-1.9v-1.9h15.97v1.9c-1.34,0-2.01,.63-2.01,1.9v48.01c0,1.27,.67,1.9,2.01,1.9v1.9h-17.13v-1.9c.92,0,1.38-.32,1.38-.95,0-.49-.57-1.3-1.69-2.43l-32.25-33.63v35.11c0,1.27,.81,1.9,2.43,1.9v1.9h-15.65v-1.9Z"/><path class="cls-2" d="M424.06,30.34c0-.77-.3-1.36-.9-1.75-.6-.39-1.64-.58-3.12-.58h-34.26v13.11h20.73c1.41,0,2.5-.19,3.28-.58,.77-.39,1.16-1.39,1.16-3.01h1.9v16.5h-1.9c0-1.62-.39-2.66-1.16-3.12-.78-.46-1.87-.69-3.28-.69h-20.73v14.59h35.32c1.06,0,1.92-.25,2.59-.74,.67-.49,1-1.16,1-2.01h1.9v14.49h-1.9c0-1.06-.33-1.66-1-1.8-.67-.14-1.53-.21-2.59-.21h-49.28v-1.9c.49,0,.93-.16,1.32-.48,.39-.32,.58-.79,.58-1.43V22.72c0-.63-.2-1.11-.58-1.43-.39-.32-.83-.48-1.32-.48v-1.9h48.22c1.48,0,2.52-.23,3.12-.69,.6-.46,.9-1.07,.9-1.85h1.9v13.96h-1.9Z"/><path class="cls-2" d="M446.48,57.09l1.06,.53c0,.63,.14,1.2,.42,1.69,.49,.85,1.46,1.68,2.91,2.49,1.44,.81,3.1,1.53,4.97,2.17,1.87,.63,3.82,1.15,5.87,1.53,2.04,.39,3.88,.58,5.5,.58,1.2,0,2.75-.09,4.65-.26,1.9-.17,3.77-.54,5.61-1.11,1.83-.56,3.42-1.34,4.76-2.33,1.34-.99,2.01-2.29,2.01-3.91s-.62-2.82-1.85-3.6c-1.23-.77-2.86-1.34-4.86-1.69-2.01-.35-4.3-.58-6.87-.69-2.57-.11-5.2-.26-7.88-.48-2.68-.21-5.31-.56-7.88-1.06-2.57-.49-4.86-1.32-6.87-2.49-2.01-1.16-3.63-2.75-4.86-4.76-1.23-2.01-1.85-4.63-1.85-7.88,0-2.18,.51-4.34,1.53-6.45,1.02-2.12,2.59-3.98,4.71-5.61,2.12-1.62,4.79-2.94,8.04-3.96,3.24-1.02,7.05-1.53,11.42-1.53,3.74,0,6.98,.28,9.73,.85,2.75,.56,5.13,1.16,7.14,1.8,2.01,.63,3.7,1.23,5.08,1.8,1.38,.57,2.52,.85,3.44,.85,.99,0,1.69-.21,2.12-.63l1.27,.85-7.3,13.22-1.06-.42c-.14-.99-.42-1.8-.85-2.43-.57-.85-1.5-1.67-2.8-2.49-1.31-.81-2.84-1.53-4.6-2.17-1.76-.63-3.67-1.15-5.71-1.53-2.05-.39-4.09-.58-6.13-.58-1.55,0-3.16,.12-4.81,.37-1.66,.25-3.16,.62-4.49,1.11-1.34,.49-2.45,1.15-3.33,1.96-.88,.81-1.32,1.82-1.32,3.01,0,1.69,.62,2.96,1.85,3.81,1.23,.85,2.86,1.48,4.86,1.9,2.01,.42,4.3,.71,6.87,.85,2.57,.14,5.2,.32,7.88,.53,2.68,.21,5.3,.58,7.88,1.11,2.57,.53,4.86,1.38,6.87,2.54,2.01,1.16,3.63,2.73,4.86,4.71,1.23,1.97,1.85,4.55,1.85,7.72,0,3.67-.97,6.66-2.91,8.99-1.94,2.33-4.35,4.16-7.24,5.5-2.89,1.34-6.01,2.24-9.36,2.7-3.35,.46-6.47,.69-9.36,.69-4.02,0-7.39-.23-10.1-.69-2.71-.46-4.97-1.02-6.77-1.69-1.8-.67-3.23-1.27-4.28-1.8-1.06-.53-1.97-.79-2.75-.79-.49,0-.95,.28-1.38,.85l-1.48-.85,5.82-12.8Z"/></g><g><path class="cls-1" d="M99.21,27.68h-.24v20.74c0,9.12-5.58,16.83-12.19,16.83s-12.19-7.71-12.19-16.83V26.14l-8.47-8.47h-3.4s-24.66,.01-24.66,.01c-16.46,0-29.85,13.39-29.85,29.85s13.39,29.85,29.85,29.85h19l-11.88-11.88h-7.13c-9.91,0-17.97-8.06-17.97-17.97s8.06-17.97,17.97-17.97h24.66v18.87c0,15.83,10.8,28.71,24.07,28.71s24.07-12.88,24.07-28.71v-9.11l-11.63-11.63Z"/><rect class="cls-1" x="104.79" y="23.08" width="1.94" height="19.09" transform="translate(7.9 84.34) rotate(-45)"/><rect class="cls-1" x="70.19" y="13.31" width="1.94" height="15.62" transform="translate(5.91 56.5) rotate(-45)"/><rect class="cls-1" x="50.89" y="61.04" width="1.94" height="19.09" transform="translate(-34.72 57.34) rotate(-45)"/></g></svg>