<?xml version="1.0" encoding="UTF-8"?><svg id="Layer_1" xmlns="http://www.w3.org/2000/svg" xmlns:xlink="http://www.w3.org/1999/xlink" viewBox="0 0 200 200"><defs><style>.cls-1{fill:none;}.cls-2{clip-path:url(#clippath);}.cls-3,.cls-4{fill:#fff;}.cls-5{fill:#744fc6;}.cls-6{fill:#8ad9dd;}.cls-7{fill:#b1e2e5;}.cls-8{fill:#c8e7ea;}.cls-9{fill:#1eb6c3;}.cls-10{fill:#4f86c6;}.cls-4{stroke:#fff;stroke-miterlimit:10;}</style><clipPath id="clippath"><circle class="cls-1" cx="100" cy="100" r="84.49"/></clipPath></defs><circle class="cls-3" cx="100" cy="100" r="85.94"/><g class="cls-2"><g><g><circle class="cls-8" cx="99.87" cy="100" r="85.55"/><path class="cls-9" d="M89.74,184.69l5.2-83.55L17.49,121.77c9.25,34.75,38.62,58.78,72.26,62.92Z"/><path class="cls-10" d="M89.79,184.46c10.2,1.2,20.78,.59,31.33-2.12,45.83-11.77,73.45-58.46,61.68-104.29l-87.86,22.56-5.15,83.85Z"/><path class="cls-6" d="M28.19,54.08c-8.77,13.43-13.87,29.47-13.87,46.71,0,8.71,1.31,17.12,3.73,25.04l80.85-20.56L28.19,54.08Z"/><path class="cls-7" d="M28.15,53.35l.97,1.02,69.22,50.12L69.86,19.87c-17.22,6.45-31.81,18.3-41.71,33.49Z"/><path class="cls-5" d="M182.11,75.32c-10.78-34.54-41.41-59.16-79.5-60.64l-2.12,84.09,83.12,18.85c3.98-23.45,1.52-32.64-1.5-42.3Z"/><circle class="cls-4" cx="99.87" cy="100" r="63.97"/></g><g><g><path d="M133.65,57.16c.13,.42,.41,.87,.83,1.2,.75,.59,1.54,.53,2.03-.09,.44-.56,.42-1.12-.09-1.97-.58-.92-.73-1.72-.2-2.4,.58-.73,1.61-.79,2.46-.12,.47,.37,.73,.78,.81,1.03l-.37,.19c-.06-.2-.27-.6-.7-.94-.81-.64-1.49-.34-1.8,.05-.44,.56-.34,1.09,.15,1.94,.56,.99,.7,1.71,.11,2.46-.58,.73-1.61,.96-2.68,.12-.43-.34-.83-.88-.93-1.28l.37-.19Z"/><path d="M141.11,55.49l.34,.29-4.41,5.08-.34-.29,4.41-5.08Z"/><path d="M139.8,60.24c-1.02,1.04-.86,2-.19,2.66,.47,.47,.81,.61,1.08,.71l-.17,.33c-.19-.06-.66-.24-1.23-.8-.93-.92-.84-2.17,.1-3.12,1.07-1.08,2.36-1.15,3.19-.32,1.06,1.05,.28,2.25-.18,2.71-.09,.09-.14,.14-.21,.19l-2.39-2.36Zm2.32,1.78c.45-.44,.95-1.32,.16-2.1-.71-.7-1.65-.37-2.21,.08l2.05,2.02Z"/><path d="M143.08,63.57c-1.1,.95-1.01,1.93-.4,2.64,.44,.5,.76,.67,1.03,.79l-.19,.32c-.19-.07-.64-.29-1.16-.89-.86-.99-.67-2.23,.34-3.1,1.15-1,2.44-.96,3.21-.07,.98,1.13,.1,2.26-.39,2.69-.1,.08-.15,.13-.22,.17l-2.2-2.54Zm2.17,1.96c.49-.41,1.05-1.24,.32-2.08-.66-.76-1.62-.49-2.21-.1l1.89,2.17Z"/><path d="M146.68,66.62c.46-.33,.82-.61,1.15-.89l.25,.35-.68,.54v.02c.69-.09,1.32,.15,1.78,.79,.69,.95,.37,2.15-.71,2.94-1.32,.96-2.56,.66-3.21-.23-.38-.53-.49-1.17-.23-1.74v-.02s-2.13,1.54-2.13,1.54l-.26-.37,4.02-2.93Zm-.79,1.13c-.1,.07-.19,.16-.27,.25-.46,.56-.47,1.33-.06,1.89,.62,.85,1.65,.83,2.63,.11,.83-.6,1.24-1.61,.63-2.44-.39-.54-1.14-.79-1.87-.5-.12,.05-.25,.1-.35,.17l-.72,.52Z"/><path d="M147.12,72.64l3.84-2.45,.24,.38-3.84,2.45-.24-.38Zm5.25-2.65c-.18,.11-.41,.09-.54-.11-.11-.17-.04-.39,.14-.51,.18-.11,.42-.08,.53,.1,.12,.18,.05,.4-.14,.52Z"/><path d="M151.16,72.54c.36-.2,.63-.37,.93-.56l.2,.37-.7,.43v.02c.58-.03,1.22,.27,1.58,.92,.21,.38,.58,1.5-.91,2.32l-2.38,1.32-.22-.39,2.35-1.31c.72-.4,1.23-1.05,.77-1.87-.31-.56-.98-.81-1.58-.68-.11,.02-.26,.07-.38,.14l-2.46,1.37-.22-.39,3.03-1.68Z"/><path d="M156.12,80.05c-.32,.12-.65,.25-1.09,.44l-2.47,1.11c-1.06,.48-1.69,.49-2.18,.29-.53-.22-.91-.72-1.12-1.19-.21-.47-.33-1.06-.23-1.48h.4c-.06,.37-.04,.85,.21,1.39,.39,.87,1.12,1.3,2.35,.75l.59-.26v-.02c-.53-.03-1.12-.34-1.46-1.08-.46-1.04,.12-2.19,1.24-2.69,1.45-.65,2.63-.04,3.05,.88,.36,.81,.1,1.43-.17,1.75v.02s.72-.29,.72-.29l.17,.38Zm-1.8,.27c.15-.07,.27-.14,.38-.23,.42-.4,.68-1.03,.37-1.71-.39-.88-1.39-1.16-2.48-.67-.93,.42-1.52,1.27-1.08,2.25,.25,.55,.82,.92,1.51,.86,.16-.01,.33-.06,.47-.12l.83-.37Z"/></g><g><path d="M122.27,156.57l-4.31-5.01,.41-.2,2.42,2.83c.55,.65,1.06,1.25,1.43,1.74h.02c-.17-.59-.29-1.38-.44-2.24l-.63-3.7,.39-.19,2.42,2.79c.52,.61,1.06,1.23,1.44,1.77h.02c-.17-.69-.29-1.41-.44-2.24l-.63-3.69,.42-.2,1.08,6.58-.39,.19-2.48-2.88c-.63-.73-1.05-1.23-1.39-1.73h-.02c.17,.59,.28,1.23,.43,2.2l.64,3.79-.39,.19Z"/><path d="M130.46,149.31c.92,1.43,.33,2.67-.53,3.22-.99,.64-2.25,.36-3.02-.85-.84-1.31-.44-2.59,.51-3.2,1.06-.68,2.29-.35,3.04,.83Zm-3.18,2.11c.62,.96,1.69,1.29,2.48,.78,.8-.51,.96-1.64,.33-2.62-.45-.7-1.47-1.42-2.48-.77-.98,.63-.86,1.79-.33,2.61Z"/><path d="M130.96,147.84c-.27-.36-.57-.73-.85-1.07l.33-.25,.57,.73,.02-.02c-.19-.58-.08-1.22,.42-1.6,.05-.04,.11-.07,.16-.09l.26,.34c-.06,.03-.12,.07-.18,.12-.5,.38-.53,1.08-.19,1.74,.06,.12,.14,.25,.23,.37l1.51,2.01-.36,.27-1.92-2.55Z"/><path d="M134.16,146.39h.01c0-.19,0-.47,0-.68l.12-2.33,.42-.36-.17,2.63,3.32,.66-.42,.36-2.96-.6-.03,.67,1.24,1.44-.34,.29-4.38-5.11,.34-.29,2.85,3.32Z"/><path d="M135.02,140.9c.15,.15,.17,.38,0,.55-.15,.14-.38,.11-.52-.04-.15-.15-.16-.39-.01-.54,.15-.15,.38-.12,.53,.03Zm3.65,4.61l-3.17-3.27,.32-.31,3.17,3.27-.32,.31Z"/><path d="M137.73,141.61c-.31-.28-.55-.48-.83-.7l.28-.31,.63,.53h.01c-.21-.54-.14-1.25,.36-1.8,.29-.32,1.23-1.03,2.5,.12l2.02,1.83-.3,.33-1.99-1.8c-.61-.56-1.39-.82-2.02-.12-.43,.47-.46,1.19-.14,1.72,.06,.1,.15,.22,.26,.32l2.09,1.89-.3,.33-2.57-2.32Z"/><path d="M142.44,134.15c.26,.22,.54,.45,.92,.73l2.18,1.62c.94,.7,1.26,1.23,1.32,1.76,.07,.57-.18,1.15-.49,1.56-.31,.42-.76,.8-1.18,.93l-.2-.35c.35-.13,.76-.39,1.11-.86,.57-.77,.58-1.62-.5-2.42l-.52-.38v.02c.22,.47,.24,1.14-.25,1.8-.68,.92-1.97,.97-2.96,.23-1.28-.95-1.32-2.28-.72-3.09,.53-.72,1.2-.79,1.61-.71h.01s-.6-.49-.6-.49l.25-.33Zm1.11,1.44c-.13-.1-.25-.17-.39-.21-.55-.18-1.23-.08-1.68,.51-.58,.77-.34,1.78,.63,2.5,.82,.61,1.86,.71,2.5-.16,.36-.49,.4-1.17,0-1.74-.09-.13-.21-.26-.34-.35l-.73-.55Z"/></g><g><path d="M51.53,122.27l1.2,2.92-.35,.14-1.03-2.5-2.34,.97,.95,2.29-.35,.15-.94-2.3-2.86,1.18-.17-.42,5.91-2.43Z"/><path d="M48.37,130.78l.55-.35v-.02c-.42-.04-1.01-.31-1.33-.96-.41-.82-.02-1.49,.52-1.76,.94-.47,1.92,.07,2.73,1.74l.11-.05c.4-.2,1.17-.68,.68-1.64-.18-.36-.46-.68-.81-.87l.23-.27c.44,.24,.76,.65,.95,1.02,.59,1.17-.18,1.84-.91,2.2l-1.59,.79c-.32,.16-.65,.34-.94,.54l-.19-.37Zm2.13-1.18c-.42-.9-1.13-2-2.11-1.51-.59,.29-.66,.81-.45,1.23,.34,.68,.95,.85,1.42,.8,.1-.01,.19-.04,.26-.08l.87-.44Z"/><path d="M52.33,130.95c.35-.23,.6-.41,.89-.63l.23,.35-.66,.47h.01c.6-.03,1.16,.13,1.57,.75,.35,.53,.25,1.16-.12,1.64v.02c.31-.04,.57-.01,.78,.05,.37,.11,.65,.3,.91,.71,.24,.37,.6,1.38-.84,2.32l-2.25,1.46-.25-.38,2.21-1.44c.86-.56,1.15-1.22,.72-1.89-.31-.47-.91-.62-1.41-.51-.13,.03-.28,.09-.42,.18l-2.44,1.59-.25-.38,2.38-1.55c.69-.45,.98-1.11,.58-1.73-.33-.51-1.01-.64-1.55-.5-.13,.04-.27,.1-.41,.18l-2.35,1.53-.25-.38,2.9-1.89Z"/><path d="M54.05,139.52l3.57-2.83,.28,.35-3.56,2.83-.28-.35Zm4.95-3.17c-.16,.13-.39,.13-.54-.05-.13-.16-.08-.39,.09-.52,.16-.13,.41-.12,.54,.04,.13,.17,.09,.39-.08,.53Z"/><path d="M60.51,136.79l.29,.34-5.11,4.38-.29-.34,5.11-4.38Z"/><path d="M60.04,139.58l-1.32,2.92c-.15,.31-.32,.66-.48,.92h.01c.27-.12,.61-.28,.97-.44l2.9-1.24,.33,.35-3.4,1.37c-1.4,.58-2.28,.89-3.06,.82-.47-.05-.79-.19-.9-.24l.17-.37c.22,.1,.54,.21,.92,.22,.32,0,.8-.04,1.35-.25,.1-.04,.15-.07,.18-.1,.03-.03,.07-.08,.11-.18l1.87-4.14,.33,.35Z"/><path d="M59.11,145.71l6.85-3.07,.34,.31-6.86,3.06-.33-.29Z"/><path d="M66.67,143.37l2.49,1.94-.23,.3-2.14-1.67-1.56,2,1.96,1.53-.23,.3-1.96-1.53-1.9,2.44-.36-.28,3.93-5.04Z"/><path d="M68,148.39c.26-.38,.51-.77,.74-1.15l.34,.24-.51,.77h.02c.49-.35,1.13-.46,1.65-.1,.05,.04,.1,.08,.14,.12l-.24,.36c-.05-.05-.1-.09-.17-.14-.51-.35-1.19-.16-1.71,.37-.09,.1-.19,.21-.28,.33l-1.42,2.07-.37-.25,1.8-2.63Z"/><path d="M68.75,152.71l2.4-3.87,.38,.24-2.4,3.87-.38-.24Zm3.59-4.66c-.11,.18-.33,.26-.53,.13-.18-.11-.2-.34-.09-.52,.11-.18,.34-.25,.52-.14,.18,.11,.21,.34,.1,.53Z"/><path d="M71.8,151.86c-.69,1.28-.26,2.16,.56,2.61,.58,.31,.95,.36,1.24,.37l-.07,.37c-.2,0-.71-.05-1.4-.42-1.15-.62-1.42-1.84-.79-3.02,.72-1.34,1.94-1.76,2.97-1.21,1.31,.71,.9,2.07,.59,2.65-.06,.11-.09,.18-.14,.24l-2.96-1.59Zm2.73,1.06c.31-.55,.54-1.53-.44-2.06-.88-.47-1.69,.11-2.1,.69l2.54,1.37Z"/><path d="M76.43,152.98c.16-.38,.27-.68,.39-1.02l.39,.17-.29,.77h.02c.43-.37,1.12-.52,1.8-.23,.4,.17,1.38,.83,.71,2.39l-1.07,2.51-.41-.18,1.05-2.47c.33-.76,.32-1.58-.54-1.95-.59-.25-1.27-.04-1.67,.43-.07,.09-.16,.22-.22,.35l-1.1,2.59-.41-.18,1.35-3.19Z"/><path d="M85.64,152.88l-1.7,5.42c-.1,.32-.21,.71-.28,1.02l-.39-.12,.23-.83h-.02c-.37,.41-1.03,.68-1.84,.43-1.07-.34-1.59-1.48-1.18-2.78,.45-1.45,1.62-2.07,2.69-1.74,.75,.23,1.1,.77,1.18,1.21h.02s.86-2.74,.86-2.74l.43,.13Zm-1.62,3.67c.04-.12,.07-.28,.08-.41,.03-.63-.33-1.27-1.04-1.5-.94-.3-1.8,.34-2.16,1.46-.31,.98-.1,2.03,.93,2.36,.62,.19,1.33-.04,1.75-.7,.07-.1,.12-.21,.16-.34l.27-.87Z"/><path d="M85.38,159.14c.21,.21,.53,.44,.93,.53,.7,.16,1.12-.15,1.22-.61,.11-.49-.12-.82-.71-1.21-.66-.45-.97-.93-.85-1.47,.15-.64,.78-1.09,1.64-.89,.41,.09,.73,.29,.92,.5l-.26,.32c-.13-.14-.38-.37-.82-.47-.56-.13-.95,.17-1.04,.57-.1,.46,.17,.73,.72,1.12,.65,.45,1,.9,.85,1.57-.17,.76-.88,1.14-1.79,.94-.43-.1-.8-.31-1.06-.56l.25-.34Z"/></g><g><path d="M40.15,113.11c-.18-.36-.37-.88-.48-1.3-.21-.81-.16-1.36,.09-1.8,.19-.33,.56-.6,.99-.71,.83-.21,1.5,.14,1.92,.8h.02c.03-.54,.42-.98,1.07-1.3,.91-.46,1.34-.7,1.55-.89l.12,.46c-.15,.14-.67,.42-1.4,.78-.84,.42-1.15,.9-.98,1.73l.25,.97,2.84-.73,.11,.44-6.1,1.57Zm2.8-1.19l-.25-.98c-.25-.96-.94-1.44-1.75-1.23-.95,.25-1.16,1.04-.91,2.01,.11,.42,.23,.72,.31,.87l2.6-.67Z"/><path d="M42.84,107.32c1.43-.25,1.87-1.13,1.71-2.05-.11-.66-.3-.97-.47-1.2l.33-.18c.12,.16,.4,.58,.53,1.37,.22,1.29-.58,2.25-1.89,2.48-1.5,.26-2.58-.44-2.79-1.59-.25-1.47,1.08-1.99,1.73-2.1,.13-.02,.2-.03,.28-.03l.57,3.31Zm-.85-2.8c-.63,.1-1.54,.52-1.35,1.62,.17,.99,1.13,1.26,1.84,1.22l-.49-2.84Z"/><path d="M44.2,100.09l-.64,.13v.02c.37,.19,.82,.65,.89,1.37,.09,.91-.51,1.39-1.12,1.45-1.05,.1-1.76-.76-1.92-2.6h-.12c-.45,.05-1.33,.23-1.22,1.3,.04,.4,.18,.8,.45,1.1l-.31,.17c-.32-.39-.48-.88-.52-1.29-.13-1.31,.83-1.65,1.64-1.73l1.77-.17c.36-.03,.73-.08,1.07-.17l.04,.41Zm-2.41,.34c.07,.99,.34,2.28,1.43,2.17,.65-.06,.9-.52,.86-.99-.07-.75-.58-1.14-1.04-1.25-.1-.02-.2-.03-.28-.02l-.97,.09Z"/><path d="M37.28,94.86l5.68-.09c.33,0,.74-.03,1.06-.06v.41s-.86,.05-.86,.05v.02c.51,.22,.98,.76,1,1.6,.02,1.12-.91,1.98-2.27,2-1.52,.03-2.48-.89-2.5-2.01-.01-.78,.39-1.29,.78-1.5v-.02s-2.88,.05-2.88,.05v-.45Zm3.98,.38c-.12,0-.29,.02-.41,.05-.61,.17-1.11,.71-1.09,1.46,.02,.99,.89,1.6,2.07,1.58,1.02-.02,1.96-.54,1.94-1.63-.01-.65-.46-1.25-1.22-1.44-.12-.03-.24-.04-.38-.04l-.91,.02Z"/><path d="M38.26,92.47c.21,0,.39,.16,.38,.4,0,.21-.2,.34-.41,.33-.21,0-.39-.18-.38-.38,0-.21,.19-.35,.41-.34Zm5.82,.85l-4.55-.2,.02-.45,4.55,.2-.02,.45Z"/><path d="M40.72,91.07c-.42-.04-.73-.06-1.09-.08l.04-.42,.82,.05v-.02c-.48-.3-.83-.91-.76-1.66,.05-.43,.39-1.56,2.08-1.38l2.71,.28-.05,.45-2.67-.28c-.83-.09-1.61,.15-1.71,1.09-.07,.64,.33,1.23,.9,1.47,.1,.04,.25,.09,.4,.1l2.8,.29-.05,.45-3.45-.36Z"/><path d="M40.97,82.08c.33,.09,.68,.17,1.15,.26l2.66,.52c1.14,.22,1.67,.57,1.95,1.01,.31,.48,.33,1.11,.23,1.61-.1,.51-.34,1.05-.66,1.34l-.33-.23c.26-.27,.52-.68,.63-1.26,.18-.94-.17-1.71-1.5-1.96l-.63-.12v.02c.4,.32,.71,.92,.56,1.72-.22,1.12-1.35,1.72-2.56,1.49-1.56-.3-2.18-1.48-1.99-2.47,.17-.88,.74-1.23,1.15-1.33v-.02s-.75-.17-.75-.17l.08-.41Zm1.62,.81c-.16-.03-.3-.04-.44-.03-.57,.08-1.15,.46-1.29,1.19-.18,.94,.47,1.75,1.65,1.97,1,.2,1.98-.16,2.18-1.22,.12-.59-.15-1.22-.75-1.57-.14-.08-.3-.14-.46-.17l-.9-.17Z"/></g><g><path d="M58.6,57.6l-1.54,1.4-.25-.28,3.42-3.1,.25,.28-1.54,1.4,4.03,4.46-.33,.3-4.03-4.45Z"/><path d="M66.35,58.94l-5.56-3.81,.38-.29,2.97,2.04c.8,.55,1.51,1.04,2.08,1.5h.02c-.29-.7-.55-1.54-.83-2.46l-1.08-3.48,.38-.29,1.99,6.52-.34,.26Z"/></g><g><path d="M87.63,48.38c-.27,.21-.86,.6-1.69,.84-.81,.23-1.62,.24-2.41-.18-.65-.35-1.22-1.08-1.51-2.07-.49-1.7,.21-3.48,2.3-4.07,.66-.19,1.24-.18,1.51-.14l-.04,.4c-.36-.06-.8-.06-1.39,.11-1.7,.49-2.42,1.88-1.94,3.55,.5,1.74,1.81,2.48,3.43,2.01,.65-.19,1.03-.4,1.22-.58l-.62-2.16-1.42,.41-.1-.36,1.86-.53,.79,2.77Z"/><path d="M87.86,43.98l1.74,2.69c.18,.29,.38,.63,.52,.9h.02c.04-.3,.09-.67,.15-1.06l.53-3.11,.47-.09-.69,3.6c-.27,1.49-.49,2.4-.97,3.02-.29,.37-.59,.56-.69,.62l-.21-.34c.21-.13,.47-.34,.68-.65,.18-.26,.41-.69,.53-1.27,.02-.1,.02-.16,.01-.2,0-.04-.03-.1-.09-.19l-2.46-3.82,.47-.09Z"/><path d="M92.51,44.17c-.04-.42-.08-.73-.14-1.08l.42-.04,.11,.8h.02c.24-.55,.64-.98,1.39-1.04,.63-.06,1.15,.32,1.39,.87h.02c.11-.28,.25-.5,.41-.66,.27-.27,.57-.43,1.05-.48,.44-.04,1.5,.11,1.66,1.83l.25,2.67-.45,.04-.24-2.63c-.09-1.02-.54-1.59-1.33-1.51-.56,.05-.97,.51-1.11,1.01-.03,.13-.05,.29-.04,.46l.27,2.9-.45,.04-.26-2.83c-.08-.82-.52-1.38-1.26-1.32-.61,.06-1.04,.59-1.16,1.14-.03,.13-.04,.29-.03,.44l.26,2.79-.45,.04-.32-3.45Z"/></g></g></g></g><g><path class="cls-9" d="M89.74,96.86c-1.48,1.87-3,3.67-4.57,5.41-1.57,1.74-3.15,3.27-4.73,4.62-1.58,1.34-3.16,2.41-4.73,3.21-1.57,.8-3.08,1.2-4.53,1.2-1,0-1.79-.11-2.38-.34-.59-.23-1.04-.5-1.36-.81-.32-.32-.53-.65-.63-1-.11-.35-.16-.66-.16-.93,0-.51,.15-.95,.45-1.31s.72-.54,1.27-.54c.48,0,.86,.17,1.13,.5,.27,.33,.41,.72,.41,1.18,0,.27-.08,.54-.23,.81-.15,.27-.36,.44-.63,.5,.27,.42,.65,.7,1.13,.84,.48,.14,.98,.2,1.49,.2,1.3,0,2.66-.38,4.1-1.13,1.43-.75,2.88-1.74,4.35-2.97s2.92-2.61,4.37-4.16c1.45-1.55,2.84-3.15,4.16-4.78,.57-.72,1.29-1.61,2.15-2.67,.86-1.06,1.83-2.2,2.92-3.44,1.09-1.24,2.27-2.5,3.55-3.78s2.65-2.5,4.1-3.64c1.45-1.15,2.96-2.17,4.53-3.08s3.17-1.58,4.8-2.04l.14,.18c-1.03,.94-2.1,2.1-3.21,3.49-1.12,1.39-2.21,2.89-3.28,4.5-1.07,1.61-2.09,3.31-3.06,5.09-.97,1.78-1.82,3.55-2.56,5.32-.74,1.77-1.33,3.46-1.77,5.09-.44,1.63-.66,3.12-.66,4.48,0,.94,.16,1.73,.48,2.38,.32,.65,.96,.97,1.92,.97,.57,0,1.23-.21,1.97-.63,.74-.42,1.52-.98,2.33-1.68,.81-.69,1.62-1.46,2.42-2.31,.8-.84,1.56-1.68,2.29-2.51,.72-.83,1.37-1.61,1.95-2.35,.57-.74,1.03-1.34,1.36-1.79l.32,.14c-1.03,1.3-2.11,2.67-3.26,4.12-1.15,1.45-2.31,2.77-3.49,3.96-1.18,1.19-2.36,2.18-3.55,2.96-1.19,.79-2.33,1.18-3.42,1.18-.72,0-1.33-.13-1.83-.38-.5-.26-.91-.61-1.25-1.06s-.57-.97-.72-1.54c-.15-.57-.23-1.18-.23-1.81,0-1.72,.24-3.37,.72-4.96,.48-1.58,1.03-3.15,1.63-4.69h-6.2Zm6.43-.54c1.36-2.81,2.96-5.55,4.82-8.24,1.86-2.69,4.05-5.24,6.59-7.65l-.09-.09c-1.6,.79-3.16,1.75-4.69,2.9-1.52,1.15-3.01,2.41-4.46,3.8s-2.86,2.87-4.23,4.44c-1.37,1.57-2.71,3.18-4.01,4.84h6.07Z"/><path class="cls-9" d="M126.05,79.43c-2.69,4.07-5.02,7.6-7.02,10.57-1.99,2.97-3.7,5.52-5.12,7.63s-2.58,3.86-3.49,5.23c-.91,1.37-1.62,2.5-2.13,3.37-.51,.88-.87,1.57-1.06,2.08-.2,.51-.29,.95-.29,1.31,0,.75,.33,1.13,1,1.13,.75,0,1.64-.31,2.65-.93,1.01-.62,2.1-1.46,3.26-2.54,1.16-1.07,2.35-2.32,3.55-3.76,1.21-1.43,2.38-2.96,3.53-4.59l.5,.18c-1.09,1.54-2.23,3.03-3.44,4.46-1.21,1.43-2.37,2.68-3.49,3.73-1.48,1.39-2.75,2.4-3.83,3.03s-2.04,.95-2.92,.95c-.94,0-1.61-.21-2.01-.63s-.61-.98-.61-1.67c0-.63,.11-1.29,.34-1.97,.23-.68,.61-1.49,1.15-2.44s1.26-2.1,2.15-3.46c.89-1.36,1.99-3.02,3.3-5,1.31-1.98,2.86-4.33,4.64-7.06,1.78-2.73,3.83-5.94,6.16-9.62h3.17Z"/><path class="cls-9" d="M126,95.36c-1.66,2.38-3.06,4.39-4.21,6.02-1.15,1.63-2.08,2.99-2.78,4.07s-1.22,1.95-1.54,2.58c-.32,.63-.47,1.15-.47,1.54,0,.79,.32,1.18,.95,1.18s1.3-.22,2.11-.66c.8-.44,1.64-1,2.51-1.7,.88-.69,1.75-1.48,2.63-2.35,.88-.87,1.7-1.74,2.47-2.6,.77-.86,1.45-1.69,2.04-2.49,.59-.8,1.02-1.46,1.29-1.97l.36,.23c-.36,.6-.85,1.33-1.47,2.17-.62,.85-1.32,1.71-2.11,2.6-.79,.89-1.61,1.77-2.49,2.65-.88,.88-1.77,1.66-2.67,2.35s-1.79,1.25-2.65,1.67-1.65,.63-2.38,.63c-.81,0-1.42-.23-1.81-.68s-.59-.95-.59-1.49c0-.63,.14-1.31,.43-2.01,.29-.71,.75-1.58,1.38-2.6,.63-1.03,1.46-2.27,2.47-3.73,1.01-1.46,2.23-3.27,3.64-5.41h2.9Zm2.63-8.42c.42,0,.77,.14,1.04,.43,.27,.29,.41,.64,.41,1.06s-.14,.78-.41,1.06c-.27,.29-.62,.43-1.04,.43s-.77-.14-1.04-.43c-.27-.29-.41-.64-.41-1.06s.14-.78,.41-1.06c.27-.29,.62-.43,1.04-.43Z"/></g></svg>