<?xml version="1.0" encoding="UTF-8"?><svg id="Layer_1" xmlns="http://www.w3.org/2000/svg" viewBox="0 0 256 256"><defs><style>.cls-1{fill:#fff;}.cls-2{fill:#662d91;}</style></defs><rect class="cls-1" y=".63" width="256" height="256"/><polygon class="cls-2" points="256 120.35 0 120.35 0 0 134.2 0 209.68 74.58 256 120.35"/><g><path class="cls-2" d="M52.76,211.88c0-.66-.21-1.03-.63-1.12-.42-.09-.96-.13-1.62-.13H19.1v-1.19c1.32,0,1.98-.4,1.98-1.19v-29.96c0-.79-.66-1.19-1.98-1.19v-1.19h11.35v1.19c-1.23,0-1.85,.4-1.85,1.19v26.27h21.91c.66,0,1.2-.15,1.62-.46,.42-.31,.63-.73,.63-1.25h1.19v9.04h-1.19Z"/><path class="cls-2" d="M56.59,209.44c.57-.09,1.02-.37,1.35-.86,.33-.48,.65-1.03,.96-1.65l12.21-25.67c.31-.57,.58-1.1,.83-1.58,.24-.48,.36-.9,.36-1.25,0-.44-.15-.75-.46-.92-.31-.18-.64-.31-.99-.4v-1.19h11.15v1.19c-.31,.09-.62,.21-.92,.36-.31,.15-.46,.47-.46,.96,0,.35,.08,.7,.23,1.06,.15,.35,.38,.82,.69,1.39l13.73,26.86c.22,.49,.52,.84,.89,1.06,.37,.22,.8,.44,1.29,.66v1.19h-11.62v-1.19c.18,0,.4-.07,.66-.2,.26-.13,.4-.33,.4-.59,0-.44-.18-1.01-.53-1.72l-2.51-4.88h-16.1l-2.38,4.69c-.44,.92-.66,1.58-.66,1.98,0,.48,.42,.73,1.25,.73v1.19h-9.37v-1.19Zm24.88-12.28l-5.54-12.28-6.2,12.28h11.75Z"/><path class="cls-2" d="M105.23,209.44c.84,0,1.25-.4,1.25-1.19v-29.96c0-.79-.42-1.19-1.25-1.19v-1.19h11.29v1.19c-.35,0-.53,.22-.53,.66,0,.35,.44,.97,1.32,1.85l18.94,19.67v-20.99c0-.79-.57-1.19-1.72-1.19v-1.19h9.97v1.19c-.84,0-1.25,.4-1.25,1.19v29.96c0,.79,.42,1.19,1.25,1.19v1.19h-10.69v-1.19c.57,0,.86-.2,.86-.59,0-.31-.35-.81-1.06-1.52l-20.13-20.99v21.91c0,.79,.51,1.19,1.52,1.19v1.19h-9.77v-1.19Z"/><path class="cls-2" d="M188.85,183.04c0-.48-.19-.85-.56-1.09-.37-.24-1.02-.36-1.95-.36h-21.38v8.18h12.94c.88,0,1.56-.12,2.05-.36,.48-.24,.73-.87,.73-1.88h1.19v10.3h-1.19c0-1.01-.24-1.66-.73-1.95-.48-.29-1.17-.43-2.05-.43h-12.94v9.11h22.04c.66,0,1.2-.15,1.62-.46,.42-.31,.63-.73,.63-1.25h1.19v9.04h-1.19c0-.66-.21-1.03-.63-1.12-.42-.09-.96-.13-1.62-.13h-30.76v-1.19c.31,0,.58-.1,.83-.3,.24-.2,.36-.5,.36-.89v-29.96c0-.4-.12-.69-.36-.89-.24-.2-.52-.3-.83-.3v-1.19h30.1c.92,0,1.57-.14,1.95-.43,.37-.29,.56-.67,.56-1.16h1.19v8.71h-1.19Z"/><path class="cls-2" d="M202.84,199.74l.66,.33c0,.4,.09,.75,.26,1.06,.31,.53,.91,1.05,1.81,1.55,.9,.51,1.94,.96,3.1,1.35,1.17,.4,2.39,.71,3.66,.96,1.28,.24,2.42,.36,3.43,.36,.75,0,1.72-.05,2.9-.17,1.19-.11,2.35-.34,3.5-.69,1.14-.35,2.13-.84,2.97-1.45,.84-.62,1.25-1.43,1.25-2.44s-.39-1.76-1.15-2.24c-.77-.48-1.78-.83-3.04-1.06-1.25-.22-2.68-.36-4.29-.43-1.61-.07-3.25-.17-4.92-.3-1.67-.13-3.31-.35-4.92-.66-1.61-.31-3.04-.83-4.29-1.55-1.25-.73-2.27-1.72-3.04-2.97-.77-1.25-1.15-2.89-1.15-4.92,0-1.36,.32-2.71,.96-4.03,.64-1.32,1.62-2.49,2.94-3.5,1.32-1.01,2.99-1.84,5.02-2.48,2.02-.64,4.4-.96,7.13-.96,2.33,0,4.36,.18,6.07,.53,1.72,.35,3.2,.73,4.46,1.12,1.25,.4,2.31,.77,3.17,1.12,.86,.35,1.57,.53,2.15,.53,.62,0,1.06-.13,1.32-.4l.79,.53-4.55,8.25-.66-.26c-.09-.62-.26-1.12-.53-1.52-.35-.53-.94-1.04-1.75-1.55-.81-.51-1.77-.96-2.87-1.35-1.1-.4-2.29-.71-3.56-.96-1.28-.24-2.55-.36-3.83-.36-.97,0-1.97,.08-3,.23-1.03,.15-1.97,.39-2.81,.69-.84,.31-1.53,.72-2.08,1.22-.55,.51-.83,1.13-.83,1.88,0,1.06,.38,1.85,1.15,2.38,.77,.53,1.78,.92,3.04,1.19,1.25,.26,2.68,.44,4.29,.53,1.61,.09,3.24,.2,4.92,.33,1.67,.13,3.31,.36,4.92,.69,1.61,.33,3.04,.86,4.29,1.58s2.27,1.71,3.04,2.94c.77,1.23,1.15,2.84,1.15,4.82,0,2.29-.61,4.16-1.81,5.61-1.21,1.45-2.72,2.6-4.52,3.43-1.8,.84-3.75,1.4-5.84,1.68-2.09,.29-4.04,.43-5.84,.43-2.51,0-4.61-.14-6.3-.43-1.69-.29-3.1-.64-4.22-1.06-1.12-.42-2.01-.79-2.67-1.12-.66-.33-1.23-.5-1.72-.5-.31,0-.59,.18-.86,.53l-.92-.53,3.63-7.99Z"/></g><g><path class="cls-1" d="M193.24,46.92h-.41v35.13c0,15.46-9.46,28.51-20.65,28.51s-20.65-13.06-20.65-28.51V44.31l-14.36-14.36h-5.76v.02h-41.77c-27.88,0-50.56,22.68-50.56,50.56s22.68,50.56,50.56,50.56h32.19l-20.12-20.12h-12.07c-16.79,0-30.45-13.66-30.45-30.45s13.66-30.45,30.45-30.45h41.77v31.96c0,26.81,18.29,48.63,40.77,48.63s40.77-21.82,40.77-48.63v-15.42l-19.7-19.7Z"/><rect class="cls-1" x="202.69" y="39.14" width="3.28" height="32.34" transform="translate(20.74 160.68) rotate(-45)"/><rect class="cls-1" x="144.08" y="22.59" width="3.28" height="26.46" transform="translate(17.36 113.53) rotate(-45)"/><rect class="cls-1" x="111.39" y="103.42" width="3.28" height="32.34" transform="translate(-51.46 114.95) rotate(-45)"/></g></svg>